<svg width="64" height="64" viewBox="0 0 64 64" fill="none" xmlns="http://www.w3.org/2000/svg">
  <!-- WiFi Signal -->
  <path d="M32 16C40.8366 16 48.8366 19.5817 54.6274 25.3726L51.799 28.201C46.8366 23.2386 39.8366 20.4 32 20.4C24.1634 20.4 17.1634 23.2386 12.201 28.201L9.37258 25.3726C15.1634 19.5817 23.1634 16 32 16Z" fill="#007bff"/>
  <path d="M32 24C37.5228 24 42.4772 26.0954 46.1421 29.7603L43.3137 32.5888C40.4772 29.752 36.5228 28 32 28C27.4772 28 23.5228 29.752 20.6863 32.5888L17.8579 29.7603C21.5228 26.0954 26.4772 24 32 24Z" fill="#007bff"/>
  <path d="M32 32C34.2091 32 36.2091 32.8954 37.6569 34.3431L34.8284 37.1716C34.2091 36.5523 33.1046 36 32 36C30.8954 36 29.7909 36.5523 29.1716 37.1716L26.3431 34.3431C27.7909 32.8954 29.7909 32 32 32Z" fill="#007bff"/>
  <circle cx="32" cy="40" r="4" fill="#007bff"/>
  
  <!-- Streaming Device -->
  <rect x="12" y="46" width="40" height="12" rx="2" fill="#007bff"/>
  <rect x="16" y="50" width="8" height="4" rx="1" fill="white"/>
  <rect x="28" y="50" width="8" height="4" rx="1" fill="white"/>
  <rect x="40" y="50" width="8" height="4" rx="1" fill="white"/>
</svg>
